<?xml version="1.0" standalone="no"?>
<!DOCTYPE svg PUBLIC "-//W3C//DTD SVG 20010904//EN"
 "http://www.w3.org/TR/2001/REC-SVG-20010904/DTD/svg10.dtd">
<svg version="1.0" xmlns="http://www.w3.org/2000/svg"
 width="225.000000pt" height="225.000000pt" viewBox="0 0 225.000000 225.000000"
 preserveAspectRatio="xMidYMid meet">

<g transform="translate(0.000000,225.000000) scale(0.100000,-0.100000)"
fill="#000000" stroke="none">
<path d="M980 2225 c-247 -36 -449 -132 -621 -293 -113 -106 -177 -191 -239
-317 -155 -312 -157 -656 -6 -970 181 -376 540 -612 961 -632 443 -20 854 220
1055 617 53 106 88 225 107 372 16 119 16 134 -1 254 -10 70 -29 161 -43 203
-100 297 -300 527 -577 661 -120 58 -213 86 -356 105 -123 17 -166 17 -280 0z
m-239 -865 c23 -23 30 -37 27 -61 l-3 -32 -85 0 -85 0 -3 36 c-3 29 2 42 24
62 38 36 87 34 125 -5z m224 -29 c32 -18 40 -38 27 -59 -7 -10 -25 -10 -88 -1
-43 6 -83 15 -88 19 -15 15 3 58 27 63 34 7 89 -3 122 -22z m469 -423 c9 -12
16 -42 16 -66 0 -37 -6 -50 -34 -78 -28 -28 -42 -34 -75 -34 -53 0 -97 22
-116 60 -29 55 -22 66 45 73 73 8 130 31 130 51 0 23 16 20 34 -6z m234 -40
c82 -12 83 -13 77 -38 -10 -42 -35 -71 -72 -87 -47 -19 -95 -10 -136 27 -27
24 -32 35 -32 73 0 30 6 52 19 65 l18 21 22 -25 c17 -20 37 -27 104 -36z"/>
</g>
</svg>
